<svg version="1.0" xmlns="http://www.w3.org/2000/svg" width="933.333" height="933.333" viewBox="0 0 700 700"><path d="M152.5 1.6c-37.5 5-70.4 20.6-97.6 46.1C28 73.1 10 106.2 2.8 143.8L.5 155.5v389l2.3 11.7c14.9 77.7 76 134.2 154.4 142.7 12.8 1.4 372.3 1.5 385.8.1s23.7-3.6 37.4-8.1c64.8-21.2 111.3-79.3 118.6-148.1 1.3-12.6 1.3-373 0-385.6-8.7-82.6-72.8-147.1-155.2-156.1-15.6-1.7-378.3-1.3-391.3.5zm223.9 164.3c.9 1.4 139.6 379.3 139.6 380.3 0 .4-10.7.8-23.9.8h-23.8l-1.6-4.2c-2.5-6.6-36.7-103-36.7-103.4 0-.2-34.8-.4-77.4-.4h-77.4l-1.5 4.2c-1.3 3.8-33.3 93.8-35.9 101.1l-1 2.7h-23.9c-13.1 0-23.9-.3-23.9-.8 0-.4 31.4-86.3 69.7-190.9L328.5 165h23.7c13 0 23.9.4 24.2.9z"/><path d="M349.7 229.2c-.8 2.4-14.6 41.2-30.6 86.2S290 397.5 290 397.6c0 .2 28.1.4 62.5.4s62.5-.1 62.5-.3c0-.3-55-155.5-59.2-167-1.1-3.1-2.6-5.7-3.3-5.7-.7 0-2 1.9-2.8 4.2z"/></svg>