<?xml version="1.0" standalone="no"?>
<!DOCTYPE svg PUBLIC "-//W3C//DTD SVG 20010904//EN"
 "http://www.w3.org/TR/2001/REC-SVG-20010904/DTD/svg10.dtd">
<svg version="1.0" xmlns="http://www.w3.org/2000/svg"
 width="700.000000pt" height="700.000000pt" viewBox="0 0 700.000000 700.000000"
 preserveAspectRatio="xMidYMid meet">
<metadata>
Created by potrace 1.14, written by Peter Selinger 2001-2017
</metadata>
<g transform="translate(0.000000,700.000000) scale(0.100000,-0.100000)"
fill="#000000" stroke="none">
<path d="M1525 6984 c-375 -50 -704 -206 -976 -461 -269 -254 -449 -585 -521
-961 l-23 -117 0 -1945 0 -1945 23 -117 c149 -777 760 -1342 1544 -1427 128
-14 3723 -15 3858 -1 135 14 237 36 374 81 648 212 1113 793 1186 1481 13 126
13 3730 0 3856 -87 826 -728 1471 -1552 1561 -156 17 -3783 13 -3913 -5z
m2239 -1643 c9 -14 1396 -3793 1396 -3803 0 -4 -107 -8 -239 -8 l-238 0 -16
42 c-25 66 -367 1030 -367 1034 0 2 -348 4 -774 4 l-774 0 -15 -42 c-13 -38
-333 -938 -359 -1011 l-10 -27 -239 0 c-131 0 -239 3 -239 8 0 4 314 863 697
1909 l698 1903 237 0 c130 0 239 -4 242 -9z"/>
<path d="M3497 4708 c-8 -24 -146 -412 -306 -862 -160 -450 -291 -821 -291
-822 0 -2 281 -4 625 -4 344 0 625 1 625 3 0 3 -550 1555 -592 1670 -11 31
-26 57 -33 57 -7 0 -20 -19 -28 -42z"/>
</g>
</svg>
