<svg width="16" height="17" fill="none" xmlns="http://www.w3.org/2000/svg"><path d="M7.96 4.487a3.993 3.993 0 00-3.999 4c0 2.213 1.786 4 4 4a3.993 3.993 0 003.998-4c0-2.215-1.785-4-3.999-4zm0 6.6c-1.43 0-2.6-1.166-2.6-2.6a2.603 2.603 0 012.6-2.601c1.434 0 2.6 1.166 2.6 2.6 0 1.435-1.17 2.6-2.6 2.6zm5.096-6.764a.93.93 0 01-.933.933.933.933 0 11.933-.933zm2.648.947c-.059-1.25-.344-2.357-1.26-3.269-.912-.912-2.018-1.197-3.268-1.26C9.888.668 6.03.668 4.741.74c-1.246.06-2.353.345-3.268 1.258C.558 2.91.276 4.017.213 5.266c-.073 1.288-.073 5.149 0 6.437.06 1.25.345 2.357 1.26 3.269.915.912 2.019 1.197 3.268 1.26 1.288.073 5.147.073 6.435 0 1.25-.06 2.357-.345 3.268-1.26.912-.912 1.198-2.02 1.26-3.269.073-1.288.073-5.145 0-6.433zm-1.663 7.815a2.632 2.632 0 01-1.483 1.483c-1.027.407-3.463.313-4.598.313-1.134 0-3.574.09-4.597-.313a2.632 2.632 0 01-1.483-1.483c-.407-1.027-.313-3.464-.313-4.599 0-1.134-.09-3.575.313-4.598a2.632 2.632 0 011.483-1.483c1.026-.407 3.463-.313 4.597-.313 1.135 0 3.575-.091 4.598.313a2.633 2.633 0 011.483 1.483c.407 1.027.313 3.464.313 4.598 0 1.135.094 3.576-.313 4.6z" fill="#161C25"/></svg>