<svg width="22" height="23" fill="none" xmlns="http://www.w3.org/2000/svg"><g clip-path="url(#clip0_74:5740)" fill="#A7B0BC"><path d="M14.584 3.18L15.876.512l1.161.563-1.292 2.666-1.161-.563zm4.187 3.583l2.667-1.292.563 1.162-2.667 1.291-.563-1.161zm-1.845-2.091l2.129-2.13.912.913-2.129 2.13-.912-.913zm-.438 8.376c.575-.951.202-2.279-.829-2.745 1.27-1.523-.226-3.584-1.923-3.143a1.92 1.92 0 00-1.015-1.202l.243-.243c1.457-1.511-.039-3.724-1.81-3.272-.38-1.397-2.21-1.86-3.22-.823-.054.063-2.374 2.37-3.01 3.01A3.182 3.182 0 002.02 2.738h-.694V8.24c-1.84 1.963-1.753 5.289.192 7.156.142.14.918.928 1.055 1.045a5.171 5.171 0 001.526 3.671l.854.854a5.165 5.165 0 003.68 1.523c1.39 0 2.698-.543 3.681-1.526l4.75-4.75c.967-.95.669-2.644-.575-3.165zm-15.207-1.33c-.008-1.137.497-2.191 1.335-2.954V4.125a1.89 1.89 0 011.29 1.79v1.556l1.101-1.098 3.84-3.84a.642.642 0 01.466-.19c.578.007.84.712.427 1.122L6.73 6.474l.912.912c.135-.134 3.234-3.232 3.504-3.504.649-.607 1.519.28.896.93L7.505 9.346A3.168 3.168 0 004.6 7.471h-.694v5.485a5.164 5.164 0 00-1.095 1.91c-.956-.875-1.52-1.823-1.53-3.147zm14.87 3.582l-4.75 4.75a3.895 3.895 0 01-2.772 1.15 3.885 3.885 0 01-2.765-1.145L5.01 19.2c-1.608-1.583-1.499-4.236.187-5.72V8.841a1.89 1.89 0 011.29 1.791v1.56c.956-.959 4.97-4.97 4.97-4.97a.648.648 0 01.897.04c.237.25.223.663-.033.919l-3.41 3.41.913.912 3.904-3.905c.649-.607 1.519.28.895.93l-3.887 3.887.913.913 2.728-2.728a.642.642 0 01.466-.19c.578.006.84.712.427 1.121l-2.709 2.71.913.912 1.785-1.786c.641-.587 1.493.295.892.933z"/></g><defs><clipPath id="clip0_74:5740"><path fill="#fff" transform="translate(0 .5)" d="M0 0h22v22H0z"/></clipPath></defs></svg>