<svg width="22" height="23" fill="none" xmlns="http://www.w3.org/2000/svg"><g clip-path="url(#clip0_74:5749)"><path d="M21.309 9.827l-8.753-8.753C12.176.693 11.786.5 11.4.5c-.536 0-1.162.402-1.162 1.533V7.43a10.925 10.925 0 00-7.057 3.237A10.932 10.932 0 000 18.404c0 1.256.21 2.49.627 3.666a.644.644 0 001.215 0 9.747 9.747 0 018.396-6.443v5.34c0 1.131.626 1.533 1.162 1.533.386 0 .775-.193 1.155-.573l8.754-8.754A2.35 2.35 0 0022 11.5a2.35 2.35 0 00-.691-1.673zm-.911 2.434l-8.754 8.754a1.51 1.51 0 01-.11.1 1.4 1.4 0 01-.007-.148v-6.014a.644.644 0 00-.644-.645h-.007a10.923 10.923 0 00-6.34 2.099 10.992 10.992 0 00-3.13 3.512 9.782 9.782 0 01-.117-1.515c0-5.295 4.307-9.651 9.6-9.71a.645.645 0 00.638-.644V2.033c0-.058.003-.107.007-.148.032.026.069.059.11.1l8.754 8.754c.202.202.313.472.313.761 0 .289-.111.56-.313.761z" fill="#A7B0BC"/></g><defs><clipPath id="clip0_74:5749"><path fill="#fff" transform="translate(0 .5)" d="M0 0h22v22H0z"/></clipPath></defs></svg>