<svg width="29" height="23" fill="none" xmlns="http://www.w3.org/2000/svg"><path d="M28.773 10.94c-.259-.35-6.423-8.607-14.295-8.607S.442 10.59.184 10.94A.955.955 0 000 11.5c0 .199.064.393.184.56.258.351 6.422 8.607 14.294 8.607 7.872 0 14.035-8.256 14.295-8.608a.954.954 0 00.183-.559.954.954 0 00-.183-.56zm-14.295 8.261c-5.8 0-11.356-5.917-12.842-7.708 1.484-1.793 7.03-7.69 12.842-7.69 5.799 0 11.253 5.899 12.74 7.691-1.485 1.792-6.929 7.707-12.74 7.707z" fill="#A7B0BC"/><path d="M10.264 15.393a5.531 5.531 0 01-1.32-1.806 5.137 5.137 0 01-.46-2.133 5.138 5.138 0 01.46-2.132 5.532 5.532 0 011.32-1.806 6.097 6.097 0 011.97-1.21 6.516 6.516 0 012.326-.421 6.516 6.516 0 012.327.42c.737.28 1.407.692 1.97 1.21a5.528 5.528 0 011.32 1.807c.305.676.462 1.4.46 2.132a5.135 5.135 0 01-.46 2.133 5.528 5.528 0 01-1.32 1.806 6.096 6.096 0 01-1.97 1.21 6.516 6.516 0 01-2.327.421 6.516 6.516 0 01-2.326-.42 6.096 6.096 0 01-1.97-1.211zm-.137-3.939c.002 1.078.47 2.111 1.3 2.873.832.762 1.959 1.19 3.135 1.192 1.175-.001 2.302-.43 3.133-1.192s1.299-1.795 1.3-2.873c-.001-1.077-.469-2.11-1.3-2.872-.831-.762-1.958-1.19-3.133-1.191-1.176 0-2.303.43-3.134 1.191-.832.762-1.3 1.795-1.3 2.873z" fill="#A7B0BC"/></svg>