<svg width="70" height="70" fill="none" xmlns="http://www.w3.org/2000/svg"><g clip-path="url(#clip0_57_165)" fill="#007AFF"><path d="M60.08 21.081H5.89A5.897 5.897 0 000 26.971v30.63a5.897 5.897 0 005.89 5.89h54.19a5.897 5.897 0 005.89-5.89V26.97a5.897 5.897 0 00-5.89-5.89zm3.533 36.52a3.539 3.539 0 01-3.534 3.534H5.89a3.538 3.538 0 01-3.534-3.534V26.973a3.538 3.538 0 013.534-3.534h54.19a3.539 3.539 0 013.533 3.534V57.6z"/><path d="M18.848 26.972H7.068c-.65 0-1.178.528-1.178 1.178v9.424c0 .652.528 1.178 1.178 1.178h11.78c.65 0 1.178-.527 1.178-1.178V28.15c0-.65-.527-1.178-1.178-1.178zm-1.178 9.424H8.246v-7.068h9.424v7.068z"/><path d="M10.602 31.684H7.068v2.357h3.534v-2.356zm8.246 0h-3.534v2.357h3.534v-2.356zm34.163 11.78a7.075 7.075 0 00-7.068 7.069A7.075 7.075 0 0053.01 57.6a7.075 7.075 0 007.068-7.069 7.075 7.075 0 00-7.068-7.068zm0 11.78a4.717 4.717 0 01-4.712-4.711 4.717 4.717 0 014.712-4.712 4.717 4.717 0 014.712 4.712 4.717 4.717 0 01-4.712 4.712z"/><path d="M45.943 43.464a7.075 7.075 0 00-7.068 7.069 7.075 7.075 0 007.068 7.068 7.075 7.075 0 007.068-7.069 7.075 7.075 0 00-7.068-7.068zm0 11.78a4.717 4.717 0 01-4.712-4.711 4.717 4.717 0 014.712-4.712 4.717 4.717 0 014.712 4.712 4.717 4.717 0 01-4.712 4.712zM12.958 45.82H5.89v2.356h7.068V45.82zm11.781 0H17.67v2.356h7.069V45.82zm11.78 0H29.45v2.356h7.068V45.82zm0 7.068H5.89v2.357h30.63v-2.357zm28.517-37.715L11.53 6.585c-3.205-.517-6.231 1.68-6.744 4.886L2.89 23.251l2.326.375 1.897-11.781a3.54 3.54 0 014.045-2.935l53.507 8.59a3.538 3.538 0 012.937 4.037l-.004.023-3.97 25.255 2.328.367 3.968-25.246.003-.022a5.896 5.896 0 00-4.89-6.741z"/><path d="M44.765 28.151h-2.356v4.713h2.356v-4.712zm4.712 0h-2.356v4.713h2.356v-4.712zm4.713 0h-2.357v4.713h2.356v-4.712zm4.711 0h-2.356v4.713h2.356v-4.712zm6.089-4.116l-.397 2.322 3.534.598.397-2.322-3.534-.598zM6.093 14.032l-.4 2.322 41.236 7.03.4-2.321-41.236-7.03z"/></g><defs><clipPath id="clip0_57_165"><path fill="#fff" d="M0 0h70v70H0z"/></clipPath></defs></svg>