<svg width="70" height="70" fill="none" xmlns="http://www.w3.org/2000/svg"><path d="M35 9.333c-16.725 0-30.333 13.608-30.333 30.334S18.275 70 35 70c16.727 0 30.333-13.607 30.333-30.334C65.333 22.941 51.727 9.334 35 9.334zm0 58.334c-15.439 0-28-12.562-28-28 0-15.44 12.561-28 28-28s28 12.56 28 28c0 15.438-12.561 28-28 28z" fill="#007AFF"/><path d="M35 15.167c-13.51 0-24.5 10.99-24.5 24.5 0 13.508 10.99 24.5 24.5 24.5 13.509 0 24.5-10.992 24.5-24.5 0-13.51-10.991-24.5-24.5-24.5zm0 46.666c-12.223 0-22.167-9.943-22.167-22.166S22.777 17.5 35 17.5s22.167 9.944 22.167 22.167S47.223 61.833 35 61.833zM35 0a5.84 5.84 0 00-5.833 5.833A5.84 5.84 0 0035 11.667a5.84 5.84 0 005.833-5.834A5.84 5.84 0 0035 0zm0 9.333c-1.93 0-3.5-1.57-3.5-3.5s1.57-3.5 3.5-3.5 3.5 1.57 3.5 3.5-1.57 3.5-3.5 3.5z" fill="#007AFF"/><path d="M32.324 35.34l-1.65 1.649 7 7 1.65-1.65-7-7z" fill="#007AFF"/><path d="M47.49 27.174a1.167 1.167 0 00-1.378-.202L30.946 35.14c-.2.108-.365.273-.474.475L22.305 50.78a1.164 1.164 0 001.028 1.72c.19 0 .38-.046.552-.14l15.167-8.167c.202-.108.366-.273.475-.475l8.166-15.166a1.166 1.166 0 00-.203-1.378zm-9.85 15.132l-11.435 6.156 6.157-11.434 11.434-6.157-6.156 11.435zm-1.473-25.972h-2.334v5.833h2.334v-5.833zm0 40.833h-2.334V63h2.334v-5.833zM17.5 38.5h-5.833v2.333H17.5V38.5zm40.833 0H52.5v2.333h5.833V38.5zM19.488 22.51l-1.65 1.649 3.5 3.5 1.65-1.65-3.5-3.5zm29.169 29.166l-1.65 1.65 3.5 3.5 1.65-1.65-3.5-3.5zm1.85-29.167l-2.333 2.333 1.65 1.65 2.333-2.333-1.65-1.65zM20.18 52.841l-2.334 2.333 1.65 1.65 2.333-2.333-1.65-1.65z" fill="#007AFF"/></svg>