<svg width="70" height="70" fill="none" xmlns="http://www.w3.org/2000/svg"><g clip-path="url(#clip0_57_170)" fill="#007AFF"><path d="M39.572 3.163C38.96 1.728 37.758.638 36.217.159a4.947 4.947 0 00-5.664 2.578 24.434 24.434 0 00-2.547 10.965v36.48c0 .073.007.146.02.22l3.14 16.261A3.885 3.885 0 0034.996 70h.006c1.921 0 3.569-1.434 3.823-3.276l3.148-16.322c.015-.072.022-.147.022-.22V13.7a24.422 24.422 0 00-2.424-10.537zm.092 46.905l-3.136 16.273a1.546 1.546 0 01-1.529 1.327c-.765 0-1.42-.57-1.534-1.386L30.338 50.07V13.697a22.106 22.106 0 012.304-9.922c.546-1.098 1.805-1.67 2.933-1.376.834.26 1.51.871 1.875 1.728a22.172 22.172 0 012.214 9.575v36.366z"/><path d="M29.768 25.862a1.164 1.164 0 00-1.152-.023L.636 40.995c-.376.204-.61.597-.61 1.025v6.995A1.166 1.166 0 001.6 50.107l27.98-10.492a1.17 1.17 0 00.756-1.093V26.864c0-.41-.215-.79-.569-1.002zm-1.762 11.852L2.357 47.333v-4.618l25.649-13.892v8.891zm41.359 3.281L41.385 25.84a1.166 1.166 0 00-1.721 1.025v11.658c0 .486.3.922.755 1.093L68.4 50.107c.135.05.273.074.411.074a1.166 1.166 0 001.165-1.166V42.02c0-.428-.235-.82-.61-1.025zm-1.72 6.338l-25.65-9.619v-8.893l25.65 13.894v4.618z"/><path d="M18.679 26.865a3.502 3.502 0 00-3.498 3.497v3.498h2.332v-3.498a1.167 1.167 0 012.332 0v1.166h2.331v-1.166a3.501 3.501 0 00-3.497-3.497zM8.186 32.693a3.502 3.502 0 00-3.497 3.498v3.497H7.02v-3.497a1.167 1.167 0 012.332 0h2.332a3.501 3.501 0 00-3.498-3.498zm43.136-5.828a3.502 3.502 0 00-3.497 3.497v1.166h2.331v-1.166a1.167 1.167 0 012.332 0v3.498h2.332v-3.498a3.501 3.501 0 00-3.498-3.497zm10.493 5.828a3.502 3.502 0 00-3.498 3.498h2.332a1.166 1.166 0 012.332 0v3.497h2.331v-3.497a3.501 3.501 0 00-3.497-3.498zm-29.34 32.66L19.843 67.46v-2.627l11.094-6.656-1.2-2-11.659 6.996c-.35.21-.565.589-.565.999v4.663a1.165 1.165 0 001.356 1.151l13.99-2.332-.384-2.3zm19.447-2.181l-11.659-6.995-1.2 2 11.094 6.655v2.626l-12.633-2.106-.383 2.3 13.99 2.332a1.16 1.16 0 00.943-.26c.263-.222.413-.547.413-.89v-4.663c0-.41-.214-.788-.565-1zM37.644 8.948c-.382-1.141-1.47-1.875-2.656-1.904-1.237.012-2.3.818-2.632 1.957l-.792 2.331 2.208.751.808-2.38a.448.448 0 01.422-.327c.196 0 .368.125.43.308l.793 2.39 2.213-.734-.794-2.392z"/></g><defs><clipPath id="clip0_57_170"><path fill="#fff" d="M0 0h70v70H0z"/></clipPath></defs></svg>