<svg width="70" height="70" fill="none" xmlns="http://www.w3.org/2000/svg"><path d="M22.767 33.834v2.333a2.336 2.336 0 01-2.333 2.333h-3.5a2.336 2.336 0 01-2.334-2.333v-17.5a2.336 2.336 0 012.334-2.334h3.5c.958 0 1.817.587 2.168 1.472l.18 1.058 2.3-.391-.198-1.167a1.203 1.203 0 00-.05-.193 4.671 4.671 0 00-4.4-3.112h-3.501a4.671 4.671 0 00-4.667 4.667v17.5a4.671 4.671 0 004.667 4.666h3.5a4.673 4.673 0 004.668-4.666v-2.334h-2.334z" fill="#007AFF"/><path d="M18.683 3.5a6.423 6.423 0 00-6.417 6.416 6.424 6.424 0 006.417 6.417 6.424 6.424 0 006.416-6.416A6.423 6.423 0 0018.683 3.5zm0 10.5a4.088 4.088 0 01-4.084-4.084 4.088 4.088 0 014.084-4.083 4.088 4.088 0 014.083 4.083A4.088 4.088 0 0118.683 14zm-5.25 10.5h-2.567A3.27 3.27 0 007.6 27.766V32.9a3.27 3.27 0 003.267 3.266h2.567c.644 0 1.166-.521 1.166-1.166v-9.334c0-.644-.522-1.166-1.166-1.166zm-1.167 9.333h-1.4a.935.935 0 01-.933-.933v-5.134c0-.514.418-.933.933-.933h1.4v7zm21-19.833H28.6v2.334h4.666c1.93 0 3.5 1.57 3.5 3.5v19.833H25.1V31.5h-2.334v9.334c0 .645.523 1.166 1.167 1.166h14c.645 0 1.166-.521 1.166-1.166v-21A5.84 5.84 0 0033.267 14z" fill="#007AFF"/><path d="M37.742 4.36l-2.252.613c.076.278.113.564.11.86V10.5c0 1.93-1.57 3.5-3.5 3.5-1.929 0-3.5-1.57-3.5-3.5V5.823a3.14 3.14 0 01.11-.848l-2.25-.618a5.392 5.392 0 00-.194 1.476V10.5a5.84 5.84 0 005.834 5.833 5.842 5.842 0 005.834-5.833V5.844c.005-.5-.06-1-.192-1.484z" fill="#007AFF"/><path d="M39.1 0h-8.167a4.671 4.671 0 00-4.667 4.667v4.666a1.169 1.169 0 001.167 1.167c.303 0 .602-.12.825-.342l4.324-4.325H35.6a4.671 4.671 0 004.667-4.666A1.168 1.168 0 0039.099 0zm-3.5 3.5h-3.5c-.31 0-.606.123-.826.342L28.6 6.517v-1.85a2.336 2.336 0 012.334-2.334h6.686A2.332 2.332 0 0135.6 3.5zm13.876 57.81l-10.5-21-2.087 1.045 9.978 19.956-2.63 1.315-9.312-16.509a3.377 3.377 0 00-2.954-1.783 3.375 3.375 0 00-3.372 3.371v5.173a3.497 3.497 0 01-2.154 3.213l-10.123 4.245-1.3-2.599 9.385-4.17a1.17 1.17 0 00.692-1.067V40.834h-2.333v10.91L12.96 56.1a1.167 1.167 0 00-.57 1.587l2.334 4.667c.274.55.925.79 1.495.554l11.127-4.665a5.826 5.826 0 003.588-5.359v-5.18c0-.573.465-1.038 1.026-1.038.382.003.729.213.921.572l9.87 17.5a1.168 1.168 0 001.538.47l4.666-2.333c.577-.288.81-.989.522-1.565z" fill="#007AFF"/><path d="M18.616 64.94l-4.141-8.295a1.166 1.166 0 00-1.566-.523l-4.667 2.334a1.17 1.17 0 00-.52 1.567l4.025 8.036A3.48 3.48 0 0014.88 70h.607a3.474 3.474 0 003.131-1.944 3.512 3.512 0 000-3.116zm-2.086 2.08a1.16 1.16 0 01-1.044.647h-.607a1.16 1.16 0 01-1.043-.648v-.005l-3.503-6.992 2.578-1.29 3.62 7.249a1.17 1.17 0 010 1.038zm38.778-5.712a3.786 3.786 0 00-5.065-1.686l-7 3.5c-.576.289-.81.99-.521 1.566l2.333 4.667a1.167 1.167 0 001.566.521l7-3.5.002-.001a3.789 3.789 0 001.685-5.067zm-2.731 2.981l-5.956 2.978-1.29-2.579 5.954-2.977a1.449 1.449 0 011.936.641c.353.71.064 1.579-.644 1.937zM18.683 8.167c-.965 0-1.75.785-1.75 1.75s.785 1.75 1.75 1.75 1.75-.785 1.75-1.75-.785-1.75-1.75-1.75zm0 2.333a.583.583 0 110-1.167.583.583 0 010 1.167zm36.203 11.27a4.274 4.274 0 00-.388-.445 4.018 4.018 0 00-2.852-1.176h-.015a4.018 4.018 0 00-2.855 1.192l-4.93 4.93-5.016-6.018-1.793 1.493 5.833 7c.211.252.517.404.845.419.325.013.646-.109.877-.341l5.837-5.836a1.7 1.7 0 011.211-.506h.006a1.702 1.702 0 011.373.687 1.736 1.736 0 01-.16 2.256l-5.769 5.77a4.98 4.98 0 01-3.524 1.472h-.014a4.954 4.954 0 01-4.14-2.23l-.514-.758-1.932 1.309.507.748A7.267 7.267 0 0043.548 35h.019c1.936 0 3.825-.79 5.179-2.161l5.763-5.764a4.083 4.083 0 00.377-5.306zM35.42 31.941a4.02 4.02 0 00-1.707-2.556l-6.505-4.679 5.265-3.214c.014-.007.027-.016.04-.024a4.032 4.032 0 001.763-2.847 4.028 4.028 0 00-.8-2.986c-1.295-1.737-3.724-2.154-5.495-.969l-8.592 5.362a5.505 5.505 0 00-2.456 4.597 5.493 5.493 0 002.43 4.584l9.802 6.936a4.047 4.047 0 002.261.688 4.057 4.057 0 003.401-1.832c.6-.907.811-1.995.593-3.06zm-2.598 1.86c-.553.742-1.59.92-2.335.422l-9.803-6.937a3.181 3.181 0 01-1.418-2.66 3.165 3.165 0 011.387-2.637l8.595-5.363a1.73 1.73 0 01.963-.293c.533 0 1.06.247 1.407.712a1.723 1.723 0 01-.312 2.419l-6.814 4.168a1.166 1.166 0 00-.074 1.944l7.972 5.732c.387.255.652.647.745 1.102.093.455.003.918-.313 1.39z" fill="#007AFF"/><path d="M31.173 19.763l-3.595 6.51 2.043 1.128 3.595-6.51-2.043-1.128zM25.22 32.146l-2.333 4.666 2.087 1.044 2.333-4.666-2.087-1.044z" fill="#007AFF"/><path d="M23.933 33.834h-10.5v2.333h10.5v-2.333zm26.802-15.431l-2.272.528L60.13 69.1l2.271-.528-11.666-50.169zM30.933 14H18.099v2.334h12.834V14z" fill="#007AFF"/></svg>