<svg width="20" height="19" fill="none" xmlns="http://www.w3.org/2000/svg"><path d="M16.679 2.822h-1.822V1.607a.607.607 0 00-1.214 0v1.215H6.357V1.607a.607.607 0 10-1.214 0v1.215H3.32a1.821 1.821 0 00-1.82 1.82V16.18A1.821 1.821 0 003.321 18H16.68a1.821 1.821 0 001.821-1.821V4.643a1.821 1.821 0 00-1.821-1.821zm.607 13.356a.607.607 0 01-.607.607H3.32a.607.607 0 01-.607-.607V8.286h14.572v7.892zm0-9.107H2.714V4.643a.607.607 0 01.607-.606h1.822v1.214a.607.607 0 101.214 0V4.037h7.286v1.214a.607.607 0 001.214 0V4.037h1.822a.607.607 0 01.607.607v2.429-.002z" fill="#161C25"/></svg>