<svg width="20" height="19" fill="none" xmlns="http://www.w3.org/2000/svg"><g clip-path="url(#clip0_1255_9893)"><path d="M13.278 2.77c-2.1 0-3.781-1.286-6.376-1.286a7.7 7.7 0 00-2.856.537 1.781 1.781 0 10-2.359 1.44v15.094c0 .246.2.445.446.445h.297c.246 0 .445-.2.445-.445v-4.513c1.166-.54 2.674-1.078 5.034-1.078 2.1 0 3.782 1.286 6.376 1.286 1.904 0 3.412-.64 4.825-1.594a.889.889 0 00.39-.737V2.21a.89.89 0 00-1.266-.808c-1.365.634-3.201 1.37-4.956 1.37zM2.281 1.04a.743.743 0 11-.001 1.485.743.743 0 01.001-1.486zm16.032 10.736c-.858.62-2.396 1.287-4.028 1.287-2.36 0-4.017-1.287-6.376-1.287-1.708 0-3.796.378-5.034.965V3.958c.858-.62 2.395-1.286 4.027-1.286 2.36 0 4.017 1.286 6.376 1.286 1.705 0 3.794-.698 5.034-1.286v9.104z" fill="#161C25"/></g><defs><clipPath id="clip0_1255_9893"><path fill="#fff" transform="translate(.5)" d="M0 0h19v19H0z"/></clipPath></defs></svg>