<svg width="20" height="19" fill="none" xmlns="http://www.w3.org/2000/svg"><g clip-path="url(#clip0_1255_9885)"><path d="M15.086 5.344c0-2.928-2.333-5.306-5.224-5.343C6.942-.037 4.5 2.395 4.5 5.343c0 2.751 2.058 5.016 4.705 5.312v7.266l.384.942a.22.22 0 00.408 0l.384-.942v-7.266c2.646-.296 4.705-2.56 4.705-5.31zM9.793 9.5c-2.275 0-4.117-1.859-4.117-4.156 0-2.297 1.841-4.156 4.117-4.156 2.275 0 4.117 1.859 4.117 4.156 0 2.297-1.842 4.156-4.117 4.156zm.294-6.53a.59.59 0 01-.588.593c-.81 0-1.47.666-1.47 1.484a.59.59 0 01-.589.594.59.59 0 01-.588-.594c0-1.473 1.188-2.672 2.647-2.672a.59.59 0 01.588.594z" fill="#161C25"/></g><defs><clipPath id="clip0_1255_9885"><path fill="#fff" transform="translate(.5)" d="M0 0h19v19H0z"/></clipPath></defs></svg>