<svg width="20" height="19" fill="none" xmlns="http://www.w3.org/2000/svg"><path d="M15.418 8.973l-1.13-.316a5.23 5.23 0 001.176-3.313C15.464 2.393 13.023 0 10 0 6.982 0 4.536 2.388 4.536 5.344a5.23 5.23 0 001.176 3.313l-1.13.316C2.24 9.628 1.5 11.71 1.5 12.969v3.826C1.5 18.01 2.512 19 3.755 19h12.49c1.243 0 2.255-.99 2.255-2.205v-3.826c0-1.232-.72-3.336-3.082-3.996zM10 1.187c2.347 0 4.25 1.861 4.25 4.157C14.25 7.639 12.347 9.5 10 9.5S5.75 7.64 5.75 5.344c0-2.296 1.903-4.157 4.25-4.157zm7.286 15.608a1.03 1.03 0 01-1.041 1.017H3.755a1.03 1.03 0 01-1.04-1.017v-3.826c0-1.325.898-2.49 2.201-2.854l1.796-.502A5.504 5.504 0 0010 10.688a5.503 5.503 0 003.288-1.075l1.796.502c1.303.364 2.202 1.529 2.202 2.854v3.826z" fill="#161C25"/></svg>